# xmcd CD database file generated by Grip 3.0.0
# 
# Track frame offsets:
#       150
#       18130
#       37822
# 
# Disc length: 771 seconds
# 
# Revision: 3
# Processed by: cddbd v1.4PL0 Copyright (c) Steve Scherf et al.
# Submitted via: Grip 3.0.0
# 
DISCID=12030103
DTITLE=Run4Fun - Ain'tcha gonna be a Jamaican
DYEAR=1994
DGENRE=Pop
TTITLE0=Ain'tcha gonna be a Jamaican (radio edit)
TTITLE1=Ain'tcha gonna be a Jamaican (Ragga mix)
TTITLE2=Ain'tcha gonna be a Jamaican (club mix)
EXTD=
EXTT0=
EXTT1=
EXTT2=
PLAYORDER=
